<svg xmlns="http://www.w3.org/2000/svg" width="4200" height="1852" viewBox="0 0 1950 860">
  <defs>
    <style>
      .title { font-family: "Times New Roman", "SimSun", serif; font-size: 26px; fill: #111; }
      .name { font-family: "Times New Roman", "SimSun", serif; font-size: 13.2px; fill: #111; }
      .sub { font-family: "Times New Roman", "SimSun", serif; font-size: 15px; fill: #111; }
      .member { font-family: "Times New Roman", "SimSun", serif; font-size: 9.9px; fill: #111; }
      .box { fill: #fff; stroke: #111; stroke-width: 1.45; }
      .sep { stroke: #666; stroke-width: 1.08; }
      .realize { stroke: #111; stroke-width: 1.45; stroke-dasharray: 6 5; fill: none; marker-end: url(#hollowArrow); }
      .dep-line { stroke: #111; stroke-width: 1.45; stroke-dasharray: 6 5; fill: none; }
      .dep-head { stroke: #111; stroke-width: 1.5; fill: none; stroke-linecap: round; stroke-linejoin: round; }
    </style>
    <marker id="hollowArrow" markerWidth="14" markerHeight="14" refX="13" refY="7" orient="auto" markerUnits="strokeWidth">
      <path d="M1,1 L13,7 L1,13 Z" fill="#fff" stroke="#111" stroke-width="1"/>
    </marker>
  </defs>

  <rect x="0" y="0" width="1950" height="860" fill="#fff"/>
  <text x="975" y="34" class="title" text-anchor="middle">图4 控制层详细类图（Controller）</text>

  <!-- Top controller layer -->
  <g>
    <rect x="35" y="50" width="240" height="160" class="box"/>
    <line x1="35" y1="110" x2="275" y2="110" class="sep"/>
    <line x1="35" y1="132" x2="275" y2="132" class="sep"/>
    <text x="155" y="72" class="name" text-anchor="middle">UserController</text>
    <text x="155" y="88" class="sub" text-anchor="middle">用户管理控制器</text>
    <text x="47" y="160" class="member">+BaseResult&lt;UserInfoVO&gt; getUserByUserId(</text>
    <text x="57" y="177" class="member">String userId)</text>
  </g>

  <g>
    <rect x="310" y="50" width="240" height="160" class="box"/>
    <line x1="310" y1="110" x2="550" y2="110" class="sep"/>
    <line x1="310" y1="132" x2="550" y2="132" class="sep"/>
    <text x="430" y="72" class="name" text-anchor="middle">UserResumeTemplate</text>
    <text x="430" y="87" class="name" text-anchor="middle">Controller</text>
    <text x="430" y="104" class="sub" text-anchor="middle">简历模板控制器</text>
    <text x="322" y="154" class="member">+BaseResult&lt;ResumeTemplateInfoVO&gt;</text>
    <text x="332" y="171" class="member">findResumeTemplateById(</text>
    <text x="332" y="188" class="member">Integer resumeTemplateId)</text>
  </g>

  <g>
    <rect x="585" y="50" width="240" height="160" class="box"/>
    <line x1="585" y1="110" x2="825" y2="110" class="sep"/>
    <line x1="585" y1="132" x2="825" y2="132" class="sep"/>
    <text x="705" y="72" class="name" text-anchor="middle">UserRecruitPosition</text>
    <text x="705" y="87" class="name" text-anchor="middle">Controller</text>
    <text x="705" y="104" class="sub" text-anchor="middle">招聘岗位控制器</text>
    <text x="597" y="154" class="member">+BaseResult&lt;RecruitPositionInfoVO&gt;</text>
    <text x="607" y="171" class="member">queryRecruitPosition(</text>
    <text x="607" y="188" class="member">Integer recruitPositionId)</text>
  </g>

  <g>
    <rect x="860" y="50" width="240" height="160" class="box"/>
    <line x1="860" y1="110" x2="1100" y2="110" class="sep"/>
    <line x1="860" y1="132" x2="1100" y2="132" class="sep"/>
    <text x="980" y="72" class="name" text-anchor="middle">AdminController</text>
    <text x="980" y="88" class="sub" text-anchor="middle">管理员控制器</text>
    <text x="872" y="160" class="member">+BaseResult&lt;AdminInfoVO&gt; findAdminById(</text>
    <text x="882" y="177" class="member">Integer adminId)</text>
  </g>

  <g>
    <rect x="1135" y="50" width="240" height="160" class="box"/>
    <line x1="1135" y1="110" x2="1375" y2="110" class="sep"/>
    <line x1="1135" y1="132" x2="1375" y2="132" class="sep"/>
    <text x="1255" y="72" class="name" text-anchor="middle">AdminEmploymentInformation</text>
    <text x="1255" y="87" class="name" text-anchor="middle">Controller</text>
    <text x="1255" y="104" class="sub" text-anchor="middle">招聘信息控制器</text>
    <text x="1147" y="154" class="member">+BaseResult&lt;EmploymentInformationInfoVO&gt;</text>
    <text x="1157" y="171" class="member">getEmploymentInformationInfo(</text>
    <text x="1157" y="188" class="member">Integer employmentInformationId)</text>
  </g>

  <g>
    <rect x="1410" y="50" width="240" height="160" class="box"/>
    <line x1="1410" y1="110" x2="1650" y2="110" class="sep"/>
    <line x1="1410" y1="132" x2="1650" y2="132" class="sep"/>
    <text x="1530" y="72" class="name" text-anchor="middle">AdmonitorServiceMachine</text>
    <text x="1530" y="87" class="name" text-anchor="middle">ManageController</text>
    <text x="1530" y="104" class="sub" text-anchor="middle">服务器管理控制器</text>
    <text x="1422" y="154" class="member">+BaseResult&lt;AdmonitorServiceMachineInfoVO&gt;</text>
    <text x="1432" y="171" class="member">getAdmonitorServiceMachineInfo(</text>
    <text x="1432" y="188" class="member">Integer id)</text>
  </g>

  <g>
    <rect x="1685" y="50" width="240" height="160" class="box"/>
    <line x1="1685" y1="110" x2="1925" y2="110" class="sep"/>
    <line x1="1685" y1="132" x2="1925" y2="132" class="sep"/>
    <text x="1805" y="72" class="name" text-anchor="middle">AdmonitorServiceMachine</text>
    <text x="1805" y="87" class="name" text-anchor="middle">JianKongController</text>
    <text x="1805" y="104" class="sub" text-anchor="middle">服务器监控控制器</text>
    <text x="1697" y="150" class="member">+BaseResult&lt;AdmonitorServiceMachineJianKongVO&gt;</text>
    <text x="1707" y="167" class="member">getAdmonitorServiceMachineJianKongInfo(</text>
    <text x="1707" y="184" class="member">AdmonitorServiceMachineJianKongForm form)</text>
  </g>

  <!-- Controller to BaseResult dependency bus -->
  <path d="M155 210 L155 236" class="dep-line"/>
  <path d="M430 210 L430 236" class="dep-line"/>
  <path d="M705 210 L705 236" class="dep-line"/>
  <path d="M980 210 L980 236" class="dep-line"/>
  <path d="M1255 210 L1255 236" class="dep-line"/>
  <path d="M1530 210 L1530 236" class="dep-line"/>
  <path d="M1805 210 L1805 236" class="dep-line"/>
  <path d="M155 236 L1805 236" class="dep-line"/>
  <path d="M980 236 L980 248" class="dep-line"/>
  <path d="M970 248 L980 258 L990 248" class="dep-head"/>

  <!-- BaseResult -->
  <g>
    <rect x="800" y="260" width="360" height="156" class="box"/>
    <line x1="800" y1="304" x2="1160" y2="304" class="sep"/>
    <line x1="800" y1="326" x2="1160" y2="326" class="sep"/>
    <text x="980" y="284" class="name" text-anchor="middle">BaseResult&lt;T&gt;</text>
    <text x="980" y="300" class="sub" text-anchor="middle">通用返回包装类</text>
    <text x="818" y="348" class="member">-code: Integer</text>
    <text x="818" y="365" class="member">-message: String</text>
    <text x="818" y="382" class="member">-data: T</text>
    <text x="818" y="399" class="member">+ok(T data): BaseResult&lt;T&gt;</text>
  </g>

  <!-- BaseResult to VO dependency bus -->
  <path d="M980 416 L980 454" class="dep-line"/>
  <path d="M155 454 L1805 454" class="dep-line"/>
  <path d="M155 454 L155 484" class="dep-line"/>
  <path d="M430 454 L430 484" class="dep-line"/>
  <path d="M705 454 L705 484" class="dep-line"/>
  <path d="M980 454 L980 484" class="dep-line"/>
  <path d="M1255 454 L1255 484" class="dep-line"/>
  <path d="M1530 454 L1530 484" class="dep-line"/>
  <path d="M1805 454 L1805 484" class="dep-line"/>
  <path d="M150 484 L155 490 L160 484" class="dep-head"/>
  <path d="M425 484 L430 490 L435 484" class="dep-head"/>
  <path d="M700 484 L705 490 L710 484" class="dep-head"/>
  <path d="M975 484 L980 490 L985 484" class="dep-head"/>
  <path d="M1250 484 L1255 490 L1260 484" class="dep-head"/>
  <path d="M1525 484 L1530 490 L1535 484" class="dep-head"/>
  <path d="M1800 484 L1805 490 L1810 484" class="dep-head"/>

  <!-- VO layer -->
  <g>
    <rect x="35" y="490" width="240" height="176" class="box"/>
    <line x1="35" y1="534" x2="275" y2="534" class="sep"/>
    <line x1="35" y1="556" x2="275" y2="556" class="sep"/>
    <text x="155" y="514" class="name" text-anchor="middle">UserInfoVO</text>
    <text x="155" y="530" class="sub" text-anchor="middle">用户信息返回对象</text>
    <text x="47" y="590" class="member">-userId: Integer</text>
    <text x="47" y="607" class="member">-userAccount: String</text>
    <text x="47" y="624" class="member">-userEmail: String</text>
    <text x="47" y="641" class="member">-userDreamPosition: int</text>
  </g>

  <g>
    <rect x="310" y="490" width="240" height="176" class="box"/>
    <line x1="310" y1="534" x2="550" y2="534" class="sep"/>
    <line x1="310" y1="556" x2="550" y2="556" class="sep"/>
    <text x="430" y="514" class="name" text-anchor="middle">ResumeTemplateInfoVO</text>
    <text x="430" y="530" class="sub" text-anchor="middle">简历模板返回对象</text>
    <text x="322" y="590" class="member">-resumeTemplateId: Integer</text>
    <text x="322" y="607" class="member">-resumeTemplateName: String</text>
    <text x="322" y="624" class="member">-isEnable: Integer</text>
    <text x="322" y="641" class="member">-createTime: Date</text>
  </g>

  <g>
    <rect x="585" y="490" width="240" height="176" class="box"/>
    <line x1="585" y1="534" x2="825" y2="534" class="sep"/>
    <line x1="585" y1="556" x2="825" y2="556" class="sep"/>
    <text x="705" y="514" class="name" text-anchor="middle">RecruitPositionInfoVO</text>
    <text x="705" y="530" class="sub" text-anchor="middle">招聘岗位返回对象</text>
    <text x="597" y="590" class="member">-recruitPositionId: Integer</text>
    <text x="597" y="607" class="member">-recruitPositionName: String</text>
    <text x="597" y="624" class="member">-recruitPositionIndustryCode: Integer</text>
    <text x="597" y="641" class="member">-minMonthSalary: BigDecimal</text>
  </g>

  <g>
    <rect x="860" y="490" width="240" height="176" class="box"/>
    <line x1="860" y1="534" x2="1100" y2="534" class="sep"/>
    <line x1="860" y1="556" x2="1100" y2="556" class="sep"/>
    <text x="980" y="514" class="name" text-anchor="middle">AdminInfoVO</text>
    <text x="980" y="530" class="sub" text-anchor="middle">管理员信息返回对象</text>
    <text x="872" y="590" class="member">-adminId: Integer</text>
    <text x="872" y="607" class="member">-adminAccount: String</text>
    <text x="872" y="624" class="member">-adminUsername: String</text>
    <text x="872" y="641" class="member">-adminState: Integer</text>
  </g>

  <g>
    <rect x="1135" y="490" width="240" height="176" class="box"/>
    <line x1="1135" y1="534" x2="1375" y2="534" class="sep"/>
    <line x1="1135" y1="556" x2="1375" y2="556" class="sep"/>
    <text x="1255" y="514" class="name" text-anchor="middle">EmploymentInformation</text>
    <text x="1255" y="529" class="name" text-anchor="middle">InfoVO</text>
    <text x="1255" y="546" class="sub" text-anchor="middle">招聘信息返回对象</text>
    <text x="1147" y="590" class="member">-employmentInformationId: Integer</text>
    <text x="1147" y="607" class="member">-employmentInformationCode: Integer</text>
    <text x="1147" y="624" class="member">-employmentInformationBatch: Integer</text>
    <text x="1147" y="641" class="member">-employmentInformationCompanyType: Integer</text>
  </g>

  <g>
    <rect x="1410" y="490" width="240" height="176" class="box"/>
    <line x1="1410" y1="534" x2="1650" y2="534" class="sep"/>
    <line x1="1410" y1="556" x2="1650" y2="556" class="sep"/>
    <text x="1530" y="514" class="name" text-anchor="middle">AdmonitorServiceMachine</text>
    <text x="1530" y="529" class="name" text-anchor="middle">InfoVO</text>
    <text x="1530" y="546" class="sub" text-anchor="middle">服务器信息返回对象</text>
    <text x="1422" y="590" class="member">-serviceMachineId: Integer</text>
    <text x="1422" y="607" class="member">-serviceMachineName: String</text>
    <text x="1422" y="624" class="member">-serviceMachineHost: String</text>
    <text x="1422" y="641" class="member">-serviceMachinePort: Integer</text>
  </g>

  <g>
    <rect x="1685" y="490" width="240" height="176" class="box"/>
    <line x1="1685" y1="534" x2="1925" y2="534" class="sep"/>
    <line x1="1685" y1="556" x2="1925" y2="556" class="sep"/>
    <text x="1805" y="514" class="name" text-anchor="middle">AdmonitorServiceMachine</text>
    <text x="1805" y="529" class="name" text-anchor="middle">JianKongVO</text>
    <text x="1805" y="546" class="sub" text-anchor="middle">服务器监控返回对象</text>
    <text x="1697" y="590" class="member">-serviceMachineId: Integer</text>
    <text x="1697" y="607" class="member">-serviceMachineName: String</text>
    <text x="1697" y="624" class="member">-cpuUsage: Double</text>
    <text x="1697" y="641" class="member">-online: Boolean</text>
  </g>

  <!-- Shared Serializable interface -->
  <g>
    <rect x="830" y="748" width="300" height="70" class="box"/>
    <line x1="830" y1="784" x2="1130" y2="784" class="sep"/>
    <text x="975" y="772" class="name" text-anchor="middle">Serializable</text>
    <text x="975" y="806" class="member" text-anchor="middle">&lt;&lt;interface&gt;&gt;</text>

    <path d="M155 666 L155 712" class="dep-line"/>
    <path d="M430 666 L430 712" class="dep-line"/>
    <path d="M705 666 L705 712" class="dep-line"/>
    <path d="M980 666 L980 712" class="dep-line"/>
    <path d="M1255 666 L1255 712" class="dep-line"/>
    <path d="M1530 666 L1530 712" class="dep-line"/>
    <path d="M1805 666 L1805 712" class="dep-line"/>
    <path d="M155 712 L1805 712" class="dep-line"/>
    <path d="M980 712 L980 736" class="dep-line"/>
    <path d="M972 736 L980 747 L988 736 Z" fill="#fff" stroke="#111" stroke-width="1.45"/>
  </g>
</svg>
